<svg xmlns="http://www.w3.org/2000/svg" width="17.5" height="14.662" viewBox="0 0 17.5 14.662"><path fill="#D22856" d="M11.283.153c1.736-.485 3.074.263 3.685 1.151.694-.226 1.372-.47 2.072-.691-.004.841-.538 1.478-.883 1.727.704.166 1.343-.48 1.343-.48-.175.976-1.035 1.746-1.611 1.977-.239 6.592-3.272 10.955-10.382 10.823h-.46c-.422 0-4.29-.449-5.047-1.843 2.341.192 4.011-.412 4.835-1.149-.989-.293-2.761-.465-3.07-2.881.362.104.583.223 1.228.116C1.757 8.067.385 7.366.461 5.218c.294.32 1.1.523 1.381.461C1.117 5.444-.188 2.398.921.843 2.794 2.654 4.769 4.364 8.29 4.528 8.506 2.288 9.461.787 11.283.153z"/></svg>