<svg xmlns="http://www.w3.org/2000/svg" width="154.384" height="195.325" viewBox="0 0 154.384 195.325"><path fill="#D22856" stroke="#D22856" stroke-miterlimit="10" d="M77.997.586L77.19.502.5 8.542V149.11l76.692 45.633 76.692-45.633V8.542L77.997.586zm65.855 142.82l-66.66 39.663-66.66-39.663V85.791l66.374 39.506.111 7.159-45.534-27.1-.067 6.951 45.715 27.475.113 7.35-45.7-27.186-.066 6.95 45.714 27.475 46.152-27.615v-6.982l-.058.034V97.102l20.565-12.281v58.585zm-.054-66.059l-18.236 10.744-8.419 4.96-40.149-23.884-.066 6.951 34.316 20.407-.304.18-.739.435-4.876 2.873-28.331-16.855-.066 6.951 22.362 13.298-5.276 3.529-.128.077-16.892-9.951-.066 6.95 11.084 6.527-11.291 6.779L10.677 78.06l66.139-39.755v.007l66.982 39.035zm.054-6.992l-67.02-39.508v-.01l-.008.005-.008-.005v.01L10.532 70.309V17.578l66.661-6.989 66.659 6.989v52.777z"/></svg>