<svg id="Layer_1" xmlns="http://www.w3.org/2000/svg" width="50" height="24" viewBox="0 0 49.947 24.007"><g id="miu"><g id="editor_list_view_hambuger_menu_glyph" fill="#d22856"><path id="path-1" d="M1.137 0C.51 0 0 .428 0 1.009V2.99C0 3.548.494 4 1.138 4h47.671c.628 0 1.138-.428 1.138-1.01V1.009c0-.558-.494-1.01-1.138-1.01H1.137zm0 10.002C.51 10.002 0 10.431 0 11.013v1.981c0 .557.494 1.01 1.139 1.01H48.81c.628 0 1.138-.428 1.138-1.01v-1.981c0-.558-.494-1.01-1.138-1.01H1.137zm0 10.003c-.627 0-1.137.428-1.137 1.01v1.982c0 .557.494 1.01 1.139 1.01H48.81c.628 0 1.138-.428 1.138-1.01v-1.982c0-.557-.494-1.01-1.138-1.01H1.137z"/><path id="path-1_1_" d="M1.137 0C.51 0 0 .428 0 1.009V2.99C0 3.548.494 4 1.138 4h47.671c.628 0 1.138-.428 1.138-1.01V1.009c0-.558-.494-1.01-1.138-1.01H1.137zm0 10.002C.51 10.002 0 10.431 0 11.013v1.981c0 .557.494 1.01 1.139 1.01H48.81c.628 0 1.138-.428 1.138-1.01v-1.981c0-.558-.494-1.01-1.138-1.01H1.137zm0 10.003c-.627 0-1.137.428-1.137 1.01v1.982c0 .557.494 1.01 1.139 1.01H48.81c.628 0 1.138-.428 1.138-1.01v-1.982c0-.557-.494-1.01-1.138-1.01H1.137z"/></g></g></svg>