<svg xmlns="http://www.w3.org/2000/svg" display="none"><symbol id="android-logo" viewBox="0 0 42.084 47.041"><path fill="#A4C639" d="M34.144 14.009H7.945c-.009.11-.018.22-.018.333v18.755c0 1.926 1.457 3.49 3.316 3.627v7.435a2.884 2.884 0 1 0 5.77 0v-7.421h8.058v7.421a2.884 2.884 0 0 0 2.885 2.885 2.884 2.884 0 0 0 2.886-2.885v-7.435c1.858-.137 3.315-1.701 3.315-3.627V14.342c0-.113-.004-.223-.013-.333zm-31.258 1.67a2.886 2.886 0 0 1 2.886 2.885v12.378a2.885 2.885 0 1 1-5.772 0V18.564a2.885 2.885 0 0 1 2.886-2.885zm36.312 0a2.885 2.885 0 0 1 2.886 2.885v12.378a2.885 2.885 0 0 1-2.886 2.886 2.884 2.884 0 0 1-2.885-2.886V18.564a2.884 2.884 0 0 1 2.885-2.885zM8.03 11.967h26.026c-.039-2.783-1.234-5.322-3.187-7.275L33.315.457a.304.304 0 1 0-.527-.304L30.416 4.26c-2.052-1.853-6.249-3.4-9.374-3.4-3.016 0-7.322 1.547-9.374 3.4L9.296.152a.304.304 0 0 0-.526.304l2.445 4.235c-1.95 1.954-3.147 4.493-3.185 7.276zm17.293-5.163c-.002-.805.664-1.46 1.488-1.462.826-.002 1.494.648 1.498 1.454v.008c.002.805-.664 1.46-1.49 1.462-.823.002-1.493-.649-1.496-1.454v-.008zm-11.143 0c-.001-.805.665-1.46 1.489-1.462.824-.002 1.494.648 1.497 1.454v.008c.002.805-.664 1.46-1.488 1.462-.825.002-1.495-.649-1.498-1.454v-.008z"/></symbol><symbol id="apple-logo" viewBox="0 0 46.21 56.753"><path fill="#FFF" d="M38.593 30.15c.08 8.59 7.535 11.447 7.617 11.482-.063.203-1.19 4.074-3.928 8.072-2.365 3.457-4.82 6.901-8.688 6.974-3.799.069-5.021-2.253-9.365-2.253s-5.702 2.182-9.298 2.322c-3.733.143-6.576-3.738-8.961-7.184-4.875-7.046-8.598-19.91-3.597-28.593 2.484-4.313 6.925-7.043 11.743-7.114 3.666-.069 7.126 2.466 9.366 2.466 2.241 0 6.444-3.049 10.865-2.601 1.851.077 7.044.747 10.38 5.629-.269.169-6.196 3.621-6.134 10.8m-7.14-21.088c1.982-2.4 3.316-5.739 2.952-9.062-2.856.115-6.312 1.904-8.36 4.302-1.836 2.123-3.444 5.521-3.01 8.778 3.183.246 6.435-1.619 8.418-4.018"/></symbol><symbol id="close-btn" viewBox="0 0 23.867 23.867"><path d="M15.087 11.933l8.56-8.559a.75.75 0 0 0 0-1.061L21.554.22a.747.747 0 0 0-1.06 0l-8.561 8.56L3.373.22a.771.771 0 0 0-1.061 0L.22 2.313a.75.75 0 0 0 0 1.061l8.56 8.559-8.56 8.559a.751.751 0 0 0 0 1.062l2.093 2.094a.744.744 0 0 0 1.06 0l8.561-8.56 8.56 8.56a.746.746 0 0 0 1.06 0l2.093-2.094a.751.751 0 0 0 0-1.062l-8.56-8.559z"/></symbol><symbol id="footer-fb" viewBox="0 0 8.672 18.943"><path fill="#D22856" d="M6.275 3.357h2.397V.001H5.795C2.656.181 1.54 2.387 1.948 6.115H0v3.517h1.958v9.312h3.837V9.632h2.856V6.115H5.786c-.021-1.045-.036-2.406.489-2.758z"/></symbol><symbol id="footer-tw" viewBox="0 0 17.5 14.662"><path fill="#D22856" d="M11.283.153c1.736-.485 3.074.263 3.685 1.151.694-.226 1.372-.47 2.072-.691-.004.841-.538 1.478-.883 1.727.704.166 1.343-.48 1.343-.48-.175.976-1.035 1.746-1.611 1.977-.239 6.592-3.272 10.955-10.382 10.823h-.46c-.422 0-4.29-.449-5.047-1.843 2.341.192 4.011-.412 4.835-1.149-.989-.293-2.761-.465-3.07-2.881.362.104.583.223 1.228.116C1.757 8.067.385 7.366.461 5.218c.294.32 1.1.523 1.381.461C1.117 5.444-.188 2.398.921.843 2.794 2.654 4.769 4.364 8.29 4.528 8.506 2.288 9.461.787 11.283.153z"/></symbol><symbol id="footer-yt" viewBox="0 0 14.639 13.96"><path fill="#D22856" d="M1.775 13.78C.799 14.257 0 13.757 0 12.671V1.29C0 .202.799-.295 1.775.181l12.133 5.932c.975.478.975 1.258 0 1.736L1.775 13.78z"/></symbol><symbol id="form-mail" viewBox="0 0 17.988 13.965"><path fill="#D22856" d="M14.914 1.814C16.111.816 15.816 0 14.257 0H3.731c-1.56 0-1.854.816-.657 1.814l3.742 3.118c1.197.998 3.158.998 4.354 0l3.744-3.118z"/><path fill="#D22856" d="M11.913 7.044a178.208 178.208 0 0 1-2.218 1.835l-.021.014a.985.985 0 0 1-.234.136c-.033.014-.066.034-.1.048-.11.034-.223.058-.335.058l-.01.002h-.002l-.01-.002a1.215 1.215 0 0 1-.335-.058c-.034-.014-.068-.034-.1-.048a1.032 1.032 0 0 1-.235-.136l-.02-.014c-.021-.012-1.02-.838-2.218-1.835L2.178 3.796C.979 2.798 0 3.257 0 4.816v6.315a2.842 2.842 0 0 0 2.835 2.834h12.318a2.842 2.842 0 0 0 2.835-2.834V4.816c0-1.559-.979-2.018-2.178-1.02l-3.897 3.248z"/></symbol><symbol id="form-phone" viewBox="0 0 19.697 19.695"><path fill="#D22856" d="M9.848 0C6.34 0 2.823.628 1.546 1.878.488 2.918.134 4.752.017 5.913c0 0-.017.114-.017.165a.82.82 0 0 0 .819.819c.054 0 2.028-.161 3.218-.259.029-.004.059-.008.086-.017a.82.82 0 0 0 .801-.818l.003-1.617c0-.5.407-.901.907-.901h8.027c.499 0 .907.401.907.901l.003 1.617a.82.82 0 0 0 .802.82.474.474 0 0 0 .085.017c1.19.098 3.164.259 3.217.259a.821.821 0 0 0 .822-.819c0-.051-.018-.165-.018-.165-.118-1.161-.473-2.995-1.53-4.035C16.873.628 13.356 0 9.848 0zm0 10.67a1.64 1.64 0 1 0 0 3.282 1.641 1.641 0 1 0 0-3.282zM8.616 6.975V5.951a1.025 1.025 0 0 0-2.049 0v1.023L1.03 12.888a2.055 2.055 0 0 0-.619 1.47v1.646c0 .907.734 1.643 1.641 1.643h.411v1.023a1.025 1.025 0 0 0 2.05 0v-1.023h10.669v1.023a1.025 1.025 0 1 0 2.05 0v-1.023h.411c.904 0 1.64-.734 1.64-1.643v-1.646c0-.575-.236-1.094-.618-1.47L13.13 6.975V5.951a1.025 1.025 0 1 0-2.05 0v1.023H8.616zm1.232 2.053a3.28 3.28 0 0 1 3.281 3.282c0 1.814-1.468 3.282-3.281 3.282s-3.281-1.468-3.281-3.282a3.28 3.28 0 0 1 3.281-3.282z"/></symbol><symbol id="htmlac" viewBox="0 0 154.384 195.325"><path stroke="#D22856" stroke-miterlimit="10" d="M77.997.586L77.19.502.5 8.542V149.11l76.692 45.633 76.692-45.633V8.542L77.997.586zm65.855 142.82l-66.66 39.663-66.66-39.663V85.791l66.374 39.506.111 7.159-45.534-27.1-.067 6.951 45.715 27.475.113 7.35-45.7-27.186-.066 6.95 45.714 27.475 46.152-27.615v-6.982l-.058.034V97.102l20.565-12.281v58.585zm-.054-66.059l-18.236 10.744-8.419 4.96-40.149-23.884-.066 6.951 34.316 20.407-.304.18-.739.435-4.876 2.873-28.331-16.855-.066 6.951 22.362 13.298-5.276 3.529-.128.077-16.892-9.951-.066 6.95 11.084 6.527-11.291 6.779L10.677 78.06l66.139-39.755v.007l66.982 39.035zm.054-6.992l-67.02-39.508v-.01l-.008.005-.008-.005v.01L10.532 70.309V17.578l66.661-6.989 66.659 6.989v52.777z"/></symbol><symbol id="microsoft-logo" viewBox="0 0 43.922 41.992"><path fill="#F05423" d="M20.874 19.953H0V0h20.874v19.953z"/><path fill="#84C441" d="M43.922 19.953H23.049V0h20.873v19.953z"/><path fill="#2DABE2" d="M20.873 41.992H0V22.04h20.873v19.952z"/><path fill="#F9BC15" d="M43.922 41.992H23.049V22.04h20.873v19.952z"/></symbol><symbol id="no-icon" viewBox="0 0 26.752 26.752"><path fill="#F25B26" d="M15.497 13.376L26.312 2.562A1.5 1.5 0 1 0 24.191.441L13.376 11.255 2.562.439A1.5 1.5 0 1 0 .441 2.56l10.814 10.815L.439 24.19A1.5 1.5 0 0 0 1.5 26.75c.384 0 .768-.146 1.061-.438l10.815-10.814L24.19 26.312c.293.293.677.439 1.061.439s.768-.146 1.061-.439a1.5 1.5 0 0 0 0-2.121L15.497 13.376z"/></symbol><symbol id="open-btn" viewBox="0 0 49.947 24.007"><g id="miu"><g id="editor_list_view_hambuger_menu_glyph" ><path id="path-1" d="M1.137 0C.51 0 0 .428 0 1.009V2.99C0 3.548.494 4 1.138 4h47.671c.628 0 1.138-.428 1.138-1.01V1.009c0-.558-.494-1.01-1.138-1.01H1.137zm0 10.002C.51 10.002 0 10.431 0 11.013v1.981c0 .557.494 1.01 1.139 1.01H48.81c.628 0 1.138-.428 1.138-1.01v-1.981c0-.558-.494-1.01-1.138-1.01H1.137zm0 10.003c-.627 0-1.137.428-1.137 1.01v1.982c0 .557.494 1.01 1.139 1.01H48.81c.628 0 1.138-.428 1.138-1.01v-1.982c0-.557-.494-1.01-1.138-1.01H1.137z"/><path id="path-1_1_" d="M1.137 0C.51 0 0 .428 0 1.009V2.99C0 3.548.494 4 1.138 4h47.671c.628 0 1.138-.428 1.138-1.01V1.009c0-.558-.494-1.01-1.138-1.01H1.137zm0 10.002C.51 10.002 0 10.431 0 11.013v1.981c0 .557.494 1.01 1.139 1.01H48.81c.628 0 1.138-.428 1.138-1.01v-1.981c0-.558-.494-1.01-1.138-1.01H1.137zm0 10.003c-.627 0-1.137.428-1.137 1.01v1.982c0 .557.494 1.01 1.139 1.01H48.81c.628 0 1.138-.428 1.138-1.01v-1.982c0-.557-.494-1.01-1.138-1.01H1.137z"/></g></g></symbol><symbol id="photo-contrast" viewBox="-35.422 -7.96 31.92 31.92"><path d="M-19.462-3.96c6.595 0 11.96 5.365 11.96 11.96s-5.365 11.96-11.96 11.96-11.96-5.365-11.96-11.96 5.365-11.96 11.96-11.96m0-4c-8.814 0-15.96 7.145-15.96 15.96 0 8.813 7.146 15.96 15.96 15.96S-3.502 16.813-3.502 8c0-8.815-7.146-15.96-15.96-15.96z"/><path d="M-19.462 16.331a8.519 8.519 0 0 0 8.52-8.52 8.518 8.518 0 0 0-8.52-8.519"/></symbol><symbol id="photo-cut" viewBox="0 0 48 48"><path fill="none" d="M0 0h48v48H0V0z"/><path d="M34 30h4V14c0-2.21-1.79-4-4-4H18v4h16v16zm-20 4V2h-4v8H2v4h8v20c0 2.21 1.79 4 4 4h20v8h4v-8h8v-4H14z"/></symbol><symbol id="photo-fill-01" viewBox="0 0 48 48"><path fill="none" d="M0 0h48v48H0V0z"/><path d="M33.12 17.88L15.24 0l-2.83 2.83 4.76 4.76L6.88 17.88a3 3 0 0 0 0 4.24l11 11c.58.59 1.35.88 2.12.88s1.54-.29 2.12-.88l11-11a3 3 0 0 0 0-4.24zM10.41 20L20 10.42 29.59 20H10.41zM38 23s-4 4.33-4 7c0 2.21 1.79 4 4 4s4-1.79 4-4c0-2.67-4-7-4-7zM0 40h48v3H0z"/></symbol><symbol id="quotes" viewBox="0 0 78.672 63.789"><path fill="#EFEFEF" d="M34.967 7.063L30.713 0C28.272 1.495 0 12.207 0 39.617c0 7.23.336 24.172 18.9 24.172 11.187 0 13.94-10.279 13.94-13.584 0-21.977-21.382-14.178-21.382-14.178 0-18.07 19.805-26.843 23.509-28.964zm43.705 0L74.418 0c-2.439 1.495-30.713 12.207-30.713 39.617 0 7.23.337 24.172 18.9 24.172 11.187 0 13.938-10.279 13.938-13.584 0-21.977-21.381-14.178-21.381-14.178.003-18.07 19.807-26.843 23.51-28.964z"/></symbol><symbol id="yes-icon" viewBox="0 0 30.375 21.688"><path fill="#3DC644" d="M29.936.439a1.5 1.5 0 0 0-2.121 0L10.188 18.066l-7.627-7.627A1.5 1.5 0 1 0 .44 12.56l8.688 8.688c.293.293.677.438 1.061.438.384 0 .768-.146 1.061-.438L29.936 2.561a1.502 1.502 0 0 0 0-2.122z"/></symbol></svg>